<svg width="14" height="18" viewBox="0 0 14 18" fill="none" xmlns="http://www.w3.org/2000/svg">
<path d="M7 1C5.33846 1 3.84307 1.64685 2.75384 2.70439C1.67384 3.75166 1 5.19936 1 6.80107C1 7.7354 1.23077 8.59786 1.63692 9.33711C2.62462 11.1442 4.65538 12.2941 7 12.2941C9.34462 12.2941 11.3754 11.1442 12.3631 9.33711C12.7692 8.59786 13 7.7354 13 6.80107C13 5.19936 12.3262 3.75166 11.2462 2.69412C10.1569 1.64685 8.66154 1 7 1ZM7 1C3.68615 1 1 3.53 1 6.65V11.65C1 14.77 3.68615 17 7 17C10.3138 17 13 14.77 13 11.65V6.65C13 5.09 12.3262 3.68 11.2462 2.65C10.1569 1.63 8.66154 1 7 1Z" stroke="white" stroke-opacity="0.85" stroke-width="1.2" stroke-linecap="round" stroke-linejoin="round"></path>
</svg>