<svg version="1.1" id="Layer_1" xmlns="http://www.w3.org/2000/svg" xmlns:xlink="http://www.w3.org/1999/xlink" x="0px" y="0px"
	 width="100%" viewBox="0 0 1024 1024" enable-background="new 0 0 1024 1024" xml:space="preserve">
<path fill="#FFFFFF" opacity="1.000000" stroke="none" 
	d="
M473.000000,1025.000000 
	C315.333344,1025.000000 158.166672,1025.000000 1.000000,1025.000000 
	C1.000000,683.666687 1.000000,342.333344 1.000000,1.000000 
	C342.333344,1.000000 683.666687,1.000000 1025.000000,1.000000 
	C1025.000000,342.333344 1025.000000,683.666687 1025.000000,1025.000000 
	C841.166687,1025.000000 657.333313,1025.000000 473.000000,1025.000000 
M463.394836,395.867188 
	C463.006592,402.502899 462.739349,409.148285 462.209137,415.772644 
	C459.930878,444.237579 454.414764,472.013763 444.019196,498.690674 
	C436.779205,517.269958 427.142273,534.482300 412.907837,548.644104 
	C385.549957,575.862427 351.224457,589.398804 314.467438,598.016235 
	C293.526184,602.925781 272.155945,604.186523 250.821426,605.967102 
	C229.377579,607.756897 210.957001,624.846680 206.948944,646.135681 
	C200.716034,679.242065 225.588226,709.952881 263.159882,707.634644 
	C278.383698,706.695374 293.595459,705.058350 308.713623,703.008484 
	C344.992798,698.089417 379.821167,687.826172 412.793579,671.969299 
	C454.506500,651.909058 489.485229,623.682678 515.531311,584.936646 
	C530.759521,608.561035 549.984497,628.494995 572.517822,645.106750 
	C604.889343,668.971313 641.198792,684.583435 679.961243,694.743713 
	C708.232422,702.154053 737.017334,706.113403 766.177124,707.642578 
	C790.596924,708.923157 809.630920,698.155762 819.760925,677.107666 
	C832.548828,650.536987 817.051514,615.490356 788.661560,608.032593 
	C780.256775,605.824768 771.287231,605.604004 762.542725,604.880798 
	C729.671814,602.162292 697.700439,595.701599 667.408386,582.254272 
	C647.497620,573.415466 629.355347,561.880432 614.407837,545.828918 
	C595.795837,525.842346 585.439148,501.428497 578.258789,475.631958 
	C568.880249,441.937958 565.417419,407.454224 566.413879,372.498962 
	C566.516846,368.886230 565.999878,365.194519 565.305176,361.630127 
	C560.356323,336.237732 536.675659,318.609253 510.701080,320.864716 
	C487.800842,322.853241 467.417603,341.219604 464.972107,363.839996 
	C463.849213,374.226593 464.170715,384.769287 463.394836,395.867188 
M761.764893,415.836395 
	C749.729553,382.505646 718.869324,364.503021 684.911255,371.002930 
	C649.248474,377.829193 625.810669,413.574982 633.147949,449.949036 
	C640.308044,485.444916 676.684021,509.205139 711.865662,501.366211 
	C750.764282,492.699097 773.114929,454.891022 761.764893,415.836395 
M265.471039,459.933533 
	C276.386932,488.601471 305.239044,505.963959 335.583344,502.125275 
	C365.505676,498.339966 388.166534,476.814972 393.153046,447.441315 
	C401.225616,399.888702 358.198547,360.141235 311.474213,371.612488 
	C275.611633,380.417114 250.820404,419.926880 265.471039,459.933533 
z"/>
<path fill="#FF6B57" opacity="1.000000" stroke="none" 
	d="
M463.837219,395.241211 
	C464.170715,384.769287 463.849213,374.226593 464.972107,363.839996 
	C467.417603,341.219604 487.800842,322.853241 510.701080,320.864716 
	C536.675659,318.609253 560.356323,336.237732 565.305176,361.630127 
	C565.999878,365.194519 566.516846,368.886230 566.413879,372.498962 
	C565.417419,407.454224 568.880249,441.937958 578.258789,475.631958 
	C585.439148,501.428497 595.795837,525.842346 614.407837,545.828918 
	C629.355347,561.880432 647.497620,573.415466 667.408386,582.254272 
	C697.700439,595.701599 729.671814,602.162292 762.542725,604.880798 
	C771.287231,605.604004 780.256775,605.824768 788.661560,608.032593 
	C817.051514,615.490356 832.548828,650.536987 819.760925,677.107666 
	C809.630920,698.155762 790.596924,708.923157 766.177124,707.642578 
	C737.017334,706.113403 708.232422,702.154053 679.961243,694.743713 
	C641.198792,684.583435 604.889343,668.971313 572.517822,645.106750 
	C549.984497,628.494995 530.759521,608.561035 515.204285,584.409607 
	C499.806427,560.538086 489.041016,535.229675 481.186218,508.685944 
	C470.236847,471.684845 465.171783,433.736755 463.837219,395.241211 
z"/>
<path fill="#79EDAF" opacity="1.000000" stroke="none" 
	d="
M463.616028,395.554199 
	C465.171783,433.736755 470.236847,471.684845 481.186218,508.685944 
	C489.041016,535.229675 499.806427,560.538086 514.912598,584.189453 
	C489.485229,623.682678 454.506500,651.909058 412.793579,671.969299 
	C379.821167,687.826172 344.992798,698.089417 308.713623,703.008484 
	C293.595459,705.058350 278.383698,706.695374 263.159882,707.634644 
	C225.588226,709.952881 200.716034,679.242065 206.948944,646.135681 
	C210.957001,624.846680 229.377579,607.756897 250.821426,605.967102 
	C272.155945,604.186523 293.526184,602.925781 314.467438,598.016235 
	C351.224457,589.398804 385.549957,575.862427 412.907837,548.644104 
	C427.142273,534.482300 436.779205,517.269958 444.019196,498.690674 
	C454.414764,472.013763 459.930878,444.237579 462.209137,415.772644 
	C462.739349,409.148285 463.006592,402.502899 463.616028,395.554199 
z"/>
<path fill="#FF6B57" opacity="1.000000" stroke="none" 
	d="
M761.867493,416.223328 
	C773.114929,454.891022 750.764282,492.699097 711.865662,501.366211 
	C676.684021,509.205139 640.308044,485.444916 633.147949,449.949036 
	C625.810669,413.574982 649.248474,377.829193 684.911255,371.002930 
	C718.869324,364.503021 749.729553,382.505646 761.867493,416.223328 
z"/>
<path fill="#79EDAF" opacity="1.000000" stroke="none" 
	d="
M265.321716,459.570312 
	C250.820404,419.926880 275.611633,380.417114 311.474213,371.612488 
	C358.198547,360.141235 401.225616,399.888702 393.153046,447.441315 
	C388.166534,476.814972 365.505676,498.339966 335.583344,502.125275 
	C305.239044,505.963959 276.386932,488.601471 265.321716,459.570312 
z"/>
</svg>