<svg width="384" height="429" viewBox="0 0 384 429" fill="none" xmlns="http://www.w3.org/2000/svg">
<g clip-path="url(#clip0_697_5380)">
<path d="M315.315 185.201H68.6847C65.1891 185.198 61.8378 183.805 59.366 181.331C56.8943 178.856 55.5039 175.501 55.5 172.001V92.7988C55.5039 89.299 56.8943 85.9437 59.366 83.469C61.8378 80.9943 65.1891 79.6023 68.6847 79.5984H315.315C318.811 79.6023 322.162 80.9943 324.634 83.469C327.106 85.9437 328.496 89.299 328.5 92.7988V172.001C328.496 175.501 327.106 178.856 324.634 181.331C322.162 183.805 318.811 185.198 315.315 185.201Z" fill="#2F2F2F"></path>
<path d="M315.315 185.201H68.6847C65.1891 185.198 61.8378 183.805 59.366 181.331C56.8943 178.856 55.5039 175.501 55.5 172.001V92.7988C55.5039 89.299 56.8943 85.9437 59.366 83.469C61.8378 80.9943 65.1891 79.6023 68.6847 79.5984H315.315C318.811 79.6023 322.162 80.9943 324.634 83.469C327.106 85.9437 328.496 89.299 328.5 92.7988V172.001C328.496 175.501 327.106 178.856 324.634 181.331C322.162 183.805 318.811 185.198 315.315 185.201ZM68.6847 81.1514C65.6003 81.1549 62.6433 82.3831 60.4624 84.5667C58.2814 86.7502 57.0546 89.7108 57.0511 92.7988V172.001C57.0546 175.089 58.2814 178.05 60.4624 180.233C62.6433 182.417 65.6003 183.645 68.6847 183.648H315.315C318.4 183.645 321.357 182.417 323.538 180.233C325.719 178.05 326.945 175.089 326.949 172.001V92.7988C326.945 89.7108 325.719 86.7502 323.538 84.5667C321.357 82.3831 318.4 81.1549 315.315 81.1514H68.6847Z" fill="#3F3D56"></path>
<path d="M224.509 127.096H138.345C136.698 127.096 135.119 126.496 133.954 125.428C132.79 124.36 132.135 122.911 132.135 121.401C132.135 119.89 132.79 118.442 133.954 117.373C135.119 116.305 136.698 115.705 138.345 115.705H224.509C226.156 115.705 227.735 116.305 228.9 117.373C230.065 118.442 230.719 119.89 230.719 121.401C230.719 122.911 230.065 124.36 228.9 125.428C227.735 126.496 226.156 127.096 224.509 127.096Z" fill="#79EDAF"></path>
<path d="M304.145 147.979H138.334C136.69 147.979 135.113 147.379 133.951 146.311C132.789 145.243 132.135 143.794 132.135 142.283C132.135 140.773 132.789 139.324 133.951 138.256C135.113 137.188 136.69 136.588 138.334 136.588H304.145C305.789 136.588 307.366 137.188 308.528 138.256C309.691 139.324 310.344 140.773 310.344 142.283C310.344 143.794 309.691 145.243 308.528 146.311C307.366 147.379 305.789 147.979 304.145 147.979Z" fill="#79EDAF"></path>
<path d="M96.7344 152.676C107.99 152.676 117.115 143.539 117.115 132.268C117.115 120.996 107.99 111.859 96.7344 111.859C85.4787 111.859 76.3542 120.996 76.3542 132.268C76.3542 143.539 85.4787 152.676 96.7344 152.676Z" fill="#79EDAF"></path>
<path d="M266.859 59.2922H129.624C127.679 59.2901 125.814 58.5155 124.439 57.1385C123.064 55.7614 122.29 53.8944 122.288 51.947V7.87573C122.29 5.92833 123.064 4.06132 124.439 2.6843C125.814 1.30728 127.679 0.532709 129.624 0.530518H266.859C268.805 0.532709 270.669 1.30728 272.045 2.6843C273.42 4.06132 274.194 5.92833 274.196 7.87573V51.947C274.194 53.8944 273.42 55.7614 272.045 57.1385C270.669 58.5155 268.805 59.29 266.859 59.2922ZM129.624 1.39465C127.908 1.3966 126.263 2.08005 125.049 3.29506C123.836 4.51008 123.153 6.15743 123.151 7.87572V51.947C123.153 53.6653 123.836 55.3127 125.049 56.5277C126.263 57.7427 127.908 58.4261 129.624 58.4281H266.859C268.576 58.4261 270.221 57.7427 271.435 56.5277C272.648 55.3127 273.331 53.6653 273.333 51.947V7.87572C273.331 6.15743 272.648 4.51008 271.435 3.29506C270.221 2.08005 268.576 1.3966 266.859 1.39465H129.624Z" fill="#351D1D" fill-opacity="0.5"></path>
<path d="M216.238 27.535H168.335C167.421 27.5337 166.544 27.169 165.897 26.5209C165.251 25.8728 164.888 24.9943 164.888 24.0784C164.888 23.1625 165.251 22.284 165.897 21.6359C166.544 20.9878 167.421 20.6231 168.335 20.6218H216.238C217.153 20.6231 218.03 20.9878 218.676 21.6359C219.323 22.284 219.686 23.1625 219.686 24.0784C219.686 24.9943 219.323 25.8728 218.676 26.5209C218.03 27.169 217.153 27.5337 216.238 27.535Z" fill="#E6E6E6" fill-opacity="0.5"></path>
<path d="M260.689 39.201H168.335C167.421 39.1998 166.544 38.835 165.897 38.1869C165.251 37.5388 164.888 36.6603 164.888 35.7444C164.888 34.8285 165.251 33.95 165.897 33.3019C166.544 32.6538 167.421 32.2891 168.335 32.2878H260.689C261.142 32.2872 261.592 32.3762 262.011 32.5496C262.431 32.7231 262.812 32.9776 263.133 33.2986C263.454 33.6196 263.709 34.0009 263.882 34.4206C264.056 34.8402 264.146 35.2901 264.146 35.7444C264.146 36.1987 264.056 36.6486 263.882 37.0683C263.709 37.4879 263.454 37.8692 263.133 38.1902C262.812 38.5113 262.431 38.7658 262.011 38.9392C261.592 39.1126 261.142 39.2016 260.689 39.201Z" fill="#E6E6E6" fill-opacity="0.5"></path>
<path d="M145.289 42.8735C152.44 42.8735 158.236 37.0702 158.236 29.9114C158.236 22.7526 152.44 16.9492 145.289 16.9492C138.139 16.9492 132.343 22.7526 132.343 29.9114C132.343 37.0702 138.139 42.8735 145.289 42.8735Z" fill="#E6E6E6" fill-opacity="0.5"></path>
<path d="M266.859 263.02H129.624C127.679 263.017 125.814 262.243 124.439 260.866C123.064 259.489 122.29 257.622 122.288 255.674V211.603C122.29 209.656 123.064 207.789 124.439 206.412C125.814 205.035 127.679 204.26 129.624 204.258H266.859C268.805 204.26 270.669 205.035 272.045 206.412C273.42 207.789 274.194 209.656 274.196 211.603V255.674C274.194 257.622 273.42 259.489 272.045 260.866C270.669 262.243 268.805 263.017 266.859 263.02ZM129.624 205.122C127.908 205.124 126.263 205.807 125.049 207.022C123.836 208.237 123.153 209.885 123.151 211.603V255.674C123.153 257.393 123.836 259.04 125.049 260.255C126.263 261.47 127.908 262.153 129.624 262.155H266.859C268.576 262.153 270.221 261.47 271.435 260.255C272.648 259.04 273.331 257.393 273.333 255.674V211.603C273.331 209.885 272.648 208.237 271.435 207.022C270.221 205.807 268.576 205.124 266.859 205.122H129.624Z" fill="#351D1D" fill-opacity="0.5"></path>
<path d="M216.238 231.262H168.335C167.42 231.262 166.542 230.898 165.894 230.25C165.247 229.602 164.883 228.722 164.883 227.806C164.883 226.889 165.247 226.01 165.894 225.362C166.542 224.713 167.42 224.349 168.335 224.349H216.238C217.153 224.35 218.03 224.715 218.676 225.363C219.323 226.011 219.686 226.89 219.686 227.806C219.686 228.722 219.323 229.6 218.676 230.248C218.03 230.896 217.153 231.261 216.238 231.262Z" fill="#E6E6E6" fill-opacity="0.5"></path>
<path d="M260.689 242.928H168.335C167.421 242.927 166.544 242.562 165.897 241.914C165.251 241.266 164.888 240.387 164.888 239.471C164.888 238.556 165.251 237.677 165.897 237.029C166.544 236.381 167.421 236.016 168.335 236.015H260.689C261.604 236.015 262.482 236.379 263.13 237.027C263.777 237.676 264.141 238.555 264.141 239.471C264.141 240.388 263.777 241.267 263.13 241.916C262.482 242.564 261.604 242.928 260.689 242.928Z" fill="#E6E6E6" fill-opacity="0.5"></path>
<path d="M145.289 246.601C152.44 246.601 158.236 240.797 158.236 233.638C158.236 226.48 152.44 220.676 145.289 220.676C138.139 220.676 132.343 226.48 132.343 233.638C132.343 240.797 138.139 246.601 145.289 246.601Z" fill="#E6E6E6" fill-opacity="0.5"></path>
<path d="M266.859 344.885H129.624C127.679 344.883 125.814 344.108 124.439 342.731C123.064 341.354 122.29 339.487 122.288 337.54V293.469C122.29 291.521 123.064 289.654 124.439 288.277C125.814 286.9 127.679 286.126 129.624 286.124H266.859C268.805 286.126 270.669 286.9 272.045 288.277C273.42 289.654 274.194 291.521 274.196 293.469V337.54C274.194 339.487 273.42 341.354 272.045 342.731C270.669 344.108 268.805 344.883 266.859 344.885ZM129.624 286.988C127.908 286.99 126.263 287.673 125.049 288.888C123.836 290.103 123.153 291.75 123.151 293.469V337.54C123.153 339.258 123.836 340.906 125.049 342.121C126.263 343.336 127.908 344.019 129.624 344.021H266.859C268.576 344.019 270.221 343.336 271.435 342.121C272.648 340.906 273.331 339.258 273.333 337.54V293.469C273.331 291.75 272.648 290.103 271.435 288.888C270.221 287.673 268.576 286.99 266.859 286.988H129.624Z" fill="#351D1D" fill-opacity="0.5"></path>
<path d="M216.238 313.128H168.335C167.42 313.128 166.542 312.764 165.894 312.116C165.247 311.467 164.883 310.588 164.883 309.671C164.883 308.755 165.247 307.875 165.894 307.227C166.542 306.579 167.42 306.215 168.335 306.215H216.238C217.153 306.216 218.03 306.581 218.676 307.229C219.323 307.877 219.686 308.755 219.686 309.671C219.686 310.587 219.323 311.466 218.676 312.114C218.03 312.762 217.153 313.127 216.238 313.128Z" fill="#E6E6E6" fill-opacity="0.5"></path>
<path d="M260.689 324.794H168.335C167.421 324.793 166.544 324.428 165.897 323.78C165.251 323.132 164.888 322.253 164.888 321.337C164.888 320.422 165.251 319.543 165.897 318.895C166.544 318.247 167.421 317.882 168.335 317.881H260.689C261.604 317.881 262.482 318.245 263.13 318.893C263.777 319.542 264.141 320.421 264.141 321.337C264.141 322.254 263.777 323.133 263.13 323.782C262.482 324.43 261.604 324.794 260.689 324.794Z" fill="#E6E6E6" fill-opacity="0.5"></path>
<path d="M145.289 328.467C152.44 328.467 158.236 322.663 158.236 315.504C158.236 308.346 152.44 302.542 145.289 302.542C138.139 302.542 132.343 308.346 132.343 315.504C132.343 322.663 138.139 328.467 145.289 328.467Z" fill="#E6E6E6" fill-opacity="0.5"></path>
<path d="M181.371 419.573H189.024L192.664 390.021L181.37 390.022L181.371 419.573Z" fill="#FFB8B8"></path>
<path d="M179.419 417.072L194.49 417.071H194.49C195.751 417.071 197 417.32 198.165 417.803C199.331 418.286 200.389 418.995 201.281 419.887C202.173 420.78 202.88 421.84 203.363 423.007C203.846 424.174 204.094 425.424 204.094 426.687V426.999L179.42 427L179.419 417.072Z" fill="#2F2E41"></path>
<path d="M150.786 419.573H158.439L162.079 390.021L150.785 390.022L150.786 419.573Z" fill="#FFB8B8"></path>
<path d="M148.834 417.072L163.904 417.071H163.905C165.166 417.071 166.415 417.32 167.58 417.803C168.746 418.286 169.804 418.995 170.696 419.887C171.588 420.78 172.295 421.84 172.778 423.007C173.261 424.174 173.509 425.424 173.509 426.687V426.999L148.835 427L148.834 417.072Z" fill="#2F2E41"></path>
<path d="M182.899 214.983C191.366 214.983 198.229 208.111 198.229 199.634C198.229 191.157 191.366 184.285 182.899 184.285C174.432 184.285 167.568 191.157 167.568 199.634C167.568 208.111 174.432 214.983 182.899 214.983Z" fill="#FFB8B8"></path>
<path d="M193.208 413.195H179.007C178.636 413.195 178.268 413.121 177.925 412.978C177.582 412.834 177.27 412.624 177.009 412.359C176.748 412.095 176.542 411.781 176.403 411.435C176.264 411.09 176.194 410.721 176.199 410.349L177.024 342.837C177.027 342.597 176.938 342.365 176.776 342.189C176.613 342.013 176.389 341.906 176.15 341.89C175.911 341.874 175.675 341.95 175.491 342.103C175.306 342.256 175.187 342.474 175.158 342.712L166.894 410.723C166.81 411.405 166.481 412.032 165.967 412.488C165.453 412.943 164.791 413.195 164.105 413.195H149.768C149.381 413.195 148.998 413.115 148.643 412.96C148.288 412.804 147.969 412.577 147.706 412.293C147.443 412.008 147.242 411.672 147.115 411.305C146.988 410.939 146.938 410.551 146.968 410.164L156.435 288.881L156.693 288.852L202.027 283.951L196.014 410.517C195.98 411.239 195.67 411.92 195.147 412.419C194.625 412.918 193.93 413.196 193.208 413.195Z" fill="#2F2E41"></path>
<path d="M156.987 296.326C156.259 296.324 155.56 296.039 155.037 295.531C154.515 295.023 154.211 294.331 154.188 293.602C153.941 285.934 153.517 259.398 158.446 239.918C159.792 234.596 162.812 229.849 167.06 226.378C171.308 222.908 176.559 220.898 182.036 220.645C187.427 220.351 192.774 221.763 197.318 224.682C201.862 227.601 205.373 231.879 207.352 236.908C215.639 257.97 223.467 283.932 213.707 288.004C200.914 293.34 167.191 295.719 157.159 296.321C157.102 296.324 157.044 296.326 156.987 296.326Z" fill="#79EDAF"></path>
<path d="M215.58 184.121C215.821 184.369 216.081 184.597 216.358 184.804L214.749 215.754L208.055 219.186L211.906 229.977L224.346 225.056C225.351 224.658 226.2 223.945 226.766 223.023C227.332 222.101 227.583 221.021 227.483 219.943L224.224 184.835C225.291 184.038 226.09 182.936 226.515 181.673C226.94 180.411 226.971 179.049 226.604 177.769C226.237 176.488 225.49 175.35 224.461 174.505C223.432 173.66 222.171 173.149 220.845 173.04C219.519 172.93 218.191 173.227 217.038 173.892C215.885 174.556 214.961 175.557 214.389 176.759C213.818 177.962 213.626 179.311 213.838 180.626C214.051 181.941 214.659 183.16 215.58 184.121Z" fill="#FFB8B8"></path>
<path d="M214.876 216.907L219.585 230.304C219.719 230.686 219.769 231.091 219.732 231.494C219.695 231.896 219.573 232.286 219.372 232.636C219.171 232.987 218.897 233.29 218.569 233.525C218.24 233.76 217.865 233.922 217.469 233.999L203.584 236.691C201.632 237.366 199.492 237.239 197.634 236.337C195.775 235.435 194.35 233.833 193.67 231.88C192.99 229.928 193.111 227.785 194.007 225.922C194.903 224.059 196.5 222.627 198.448 221.941L210.916 215.353C211.273 215.164 211.666 215.055 212.069 215.032C212.472 215.01 212.875 215.074 213.251 215.222C213.627 215.369 213.966 215.596 214.247 215.887C214.527 216.177 214.742 216.525 214.876 216.907Z" fill="#79EDAF"></path>
<path d="M149.175 184.121C148.934 184.369 148.674 184.597 148.397 184.804L150.007 215.754L156.701 219.186L152.849 229.977L140.409 225.056C139.404 224.658 138.555 223.945 137.989 223.023C137.424 222.101 137.172 221.021 137.272 219.943L140.531 184.835C139.465 184.038 138.666 182.936 138.241 181.673C137.815 180.411 137.784 179.049 138.151 177.769C138.518 176.488 139.265 175.35 140.294 174.505C141.323 173.66 142.584 173.149 143.91 173.04C145.236 172.93 146.564 173.227 147.718 173.892C148.871 174.556 149.795 175.557 150.366 176.759C150.938 177.962 151.13 179.311 150.917 180.626C150.704 181.941 150.097 183.16 149.175 184.121Z" fill="#FFB8B8"></path>
<path d="M151.505 215.222C151.88 215.074 152.283 215.009 152.686 215.032C153.089 215.055 153.483 215.164 153.84 215.353L166.307 221.941C168.255 222.627 169.853 224.059 170.748 225.922C171.644 227.785 171.766 229.928 171.086 231.88C170.406 233.833 168.98 235.436 167.122 236.337C165.263 237.239 163.124 237.366 161.172 236.691L147.286 233.999C146.89 233.922 146.515 233.76 146.187 233.525C145.858 233.29 145.584 232.987 145.384 232.636C145.183 232.286 145.06 231.896 145.023 231.494C144.987 231.091 145.037 230.686 145.171 230.304L149.88 216.907C150.014 216.525 150.228 216.177 150.508 215.887C150.789 215.596 151.129 215.369 151.505 215.222Z" fill="#79EDAF"></path>
<path d="M177 209 L191 209 L191 226 L177 226 Z" fill="#FFB8B8"></path>
<path d="M188.853 202.251C188.772 200.293 189.263 198.354 190.265 196.67C191.267 194.987 192.737 193.632 194.496 192.772C199.156 190.363 202.083 185.226 200.801 180.534C199.159 174.53 190.996 170.635 184.381 172.701C182.591 173.337 180.865 174.141 179.225 175.1L174.904 177.42C173.058 178.345 171.278 179.397 169.577 180.568C167.029 182.448 165.032 184.978 163.795 187.894C162.557 190.811 162.125 194.006 162.542 197.147C163.393 203.252 167.386 208.851 172.852 212.684C174.943 214.248 177.357 215.322 179.917 215.828C182.537 216.26 185.454 215.769 187.37 214.137C190.364 211.588 190.054 207.319 189.086 203.753C188.958 203.262 188.88 202.758 188.853 202.251Z" fill="#2F2E41"></path>
</g>
<defs>
<linearGradient id="paint0_linear_697_5380" x1="192" y1="8.5" x2="192" y2="428.5" gradientUnits="userSpaceOnUse">
<stop></stop>
<stop offset="1" stop-color="#919191"></stop>
</linearGradient>
<clipPath id="clip0_697_5380">
<rect width="274" height="427" fill="white" transform="translate(55 0.5)"></rect>
</clipPath>
</defs>
</svg>